<svg xmlns="http://www.w3.org/2000/svg" width="1200" height="1500" viewBox="0 0 1200 1500" role="img" aria-labelledby="title desc">
  <title id="title">Euclid rankings share post mock</title>
  <desc id="desc">Example Devvit share post for Euclid human versus human rankings.</desc>
  <defs>
    <linearGradient id="bg" x1="0" y1="0" x2="1" y2="1">
      <stop offset="0%" stop-color="#091220"/>
      <stop offset="100%" stop-color="#132743"/>
    </linearGradient>
    <linearGradient id="panel" x1="0" y1="0" x2="0" y2="1">
      <stop offset="0%" stop-color="#10213a"/>
      <stop offset="100%" stop-color="#0b172a"/>
    </linearGradient>
  </defs>

  <rect width="1200" height="1500" fill="url(#bg)"/>
  <circle cx="1020" cy="180" r="210" fill="#1d4ed8" opacity="0.15"/>
  <circle cx="140" cy="1320" r="280" fill="#ef4444" opacity="0.12"/>

  <rect x="60" y="60" width="1080" height="1380" rx="34" fill="url(#panel)" stroke="#294466" stroke-width="3"/>

  <text x="110" y="160" fill="#cbd5e1" font-family="Arial, Helvetica, sans-serif" font-size="30" font-weight="700">r/ripred_euclid_dev</text>
  <text x="110" y="222" fill="#f8fafc" font-family="Arial, Helvetica, sans-serif" font-size="62" font-weight="800">Euclid Rankings</text>
  <text x="110" y="276" fill="#94a3b8" font-family="Arial, Helvetica, sans-serif" font-size="28">Human vs Human • March 9, 2026</text>

  <rect x="110" y="330" width="980" height="92" rx="24" fill="#132b46" stroke="#315781"/>
  <text x="152" y="388" fill="#93c5fd" font-family="Arial, Helvetica, sans-serif" font-size="26" font-weight="700">Top players this week</text>
  <text x="818" y="388" fill="#60a5fa" font-family="Arial, Helvetica, sans-serif" font-size="22">Share snapshot generated by Euclid</text>

  <g font-family="Arial, Helvetica, sans-serif">
    <text x="138" y="495" fill="#94a3b8" font-size="24" font-weight="700">RANK</text>
    <text x="250" y="495" fill="#94a3b8" font-size="24" font-weight="700">PLAYER</text>
    <text x="780" y="495" fill="#94a3b8" font-size="24" font-weight="700">RATING</text>
    <text x="915" y="495" fill="#94a3b8" font-size="24" font-weight="700">GAMES</text>
    <text x="1032" y="495" fill="#94a3b8" font-size="24" font-weight="700">W-L</text>
  </g>

  <g font-family="Arial, Helvetica, sans-serif">
    <rect x="110" y="530" width="980" height="118" rx="22" fill="#2b1619" opacity="0.88" stroke="#7f1d1d"/>
    <text x="148" y="603" fill="#fca5a5" font-size="36" font-weight="800">1</text>
    <circle cx="284" cy="590" r="28" fill="#ef4444"/>
    <text x="271" y="600" fill="#fff" font-size="24" font-weight="800">R</text>
    <text x="336" y="602" fill="#f8fafc" font-size="36" font-weight="700">ripred3</text>
    <text x="790" y="602" fill="#f8fafc" font-size="34" font-weight="700">1518</text>
    <text x="936" y="602" fill="#e2e8f0" font-size="34">42</text>
    <text x="1032" y="602" fill="#e2e8f0" font-size="34">31-11</text>

    <rect x="110" y="672" width="980" height="108" rx="22" fill="#111f33" stroke="#294466"/>
    <text x="148" y="738" fill="#93c5fd" font-size="34" font-weight="800">2</text>
    <circle cx="284" cy="726" r="28" fill="#2563eb"/>
    <text x="271" y="736" fill="#fff" font-size="24" font-weight="800">M</text>
    <text x="336" y="738" fill="#f8fafc" font-size="34" font-weight="700">MathMage</text>
    <text x="790" y="738" fill="#f8fafc" font-size="32" font-weight="700">1492</text>
    <text x="936" y="738" fill="#e2e8f0" font-size="32">39</text>
    <text x="1032" y="738" fill="#e2e8f0" font-size="32">27-12</text>

    <rect x="110" y="798" width="980" height="108" rx="22" fill="#111f33" stroke="#294466"/>
    <text x="148" y="864" fill="#93c5fd" font-size="34" font-weight="800">3</text>
    <circle cx="284" cy="852" r="28" fill="#0ea5e9"/>
    <text x="271" y="862" fill="#fff" font-size="24" font-weight="800">S</text>
    <text x="336" y="864" fill="#f8fafc" font-size="34" font-weight="700">SquareHunter</text>
    <text x="790" y="864" fill="#f8fafc" font-size="32" font-weight="700">1460</text>
    <text x="936" y="864" fill="#e2e8f0" font-size="32">33</text>
    <text x="1032" y="864" fill="#e2e8f0" font-size="32">22-11</text>

    <rect x="110" y="924" width="980" height="108" rx="22" fill="#111f33" stroke="#294466"/>
    <text x="148" y="990" fill="#94a3b8" font-size="34" font-weight="800">4</text>
    <circle cx="284" cy="978" r="28" fill="#475569"/>
    <text x="271" y="988" fill="#fff" font-size="24" font-weight="800">D</text>
    <text x="336" y="990" fill="#f8fafc" font-size="34" font-weight="700">DiagonalDan</text>
    <text x="790" y="990" fill="#f8fafc" font-size="32" font-weight="700">1416</text>
    <text x="936" y="990" fill="#e2e8f0" font-size="32">30</text>
    <text x="1032" y="990" fill="#e2e8f0" font-size="32">19-11</text>

    <rect x="110" y="1050" width="980" height="108" rx="22" fill="#111f33" stroke="#294466"/>
    <text x="148" y="1116" fill="#94a3b8" font-size="34" font-weight="800">5</text>
    <circle cx="284" cy="1104" r="28" fill="#475569"/>
    <text x="271" y="1114" fill="#fff" font-size="24" font-weight="800">B</text>
    <text x="336" y="1116" fill="#f8fafc" font-size="34" font-weight="700">BlueVertex</text>
    <text x="790" y="1116" fill="#f8fafc" font-size="32" font-weight="700">1398</text>
    <text x="936" y="1116" fill="#e2e8f0" font-size="32">29</text>
    <text x="1032" y="1116" fill="#e2e8f0" font-size="32">18-11</text>
  </g>

  <rect x="110" y="1220" width="980" height="128" rx="26" fill="#0f1d32" stroke="#294466"/>
  <text x="148" y="1286" fill="#f8fafc" font-family="Arial, Helvetica, sans-serif" font-size="30" font-weight="700">What this would be:</text>
  <text x="148" y="1328" fill="#cbd5e1" font-family="Arial, Helvetica, sans-serif" font-size="26">A new Euclid custom post that opens into a shareable rankings card.</text>
  <text x="148" y="1370" fill="#94a3b8" font-family="Arial, Helvetica, sans-serif" font-size="22">No external media upload required.</text>
</svg>
